<svg width="1248" height="5883" viewBox="0 0 1248 5883" fill="none" xmlns="http://www.w3.org/2000/svg">
<path fill-rule="evenodd" clip-rule="evenodd" d="M556.5 6184L432.833 6034.55C309.167 5890.26 61.8333 5596.52 154.583 5302.78C247.333 5003.89 680.167 4710.15 649.25 4416.41C618.333 4122.67 123.667 3828.93 61.8333 3535.19C0 3241.45 371 2942.55 401.917 2648.81C432.833 2355.07 123.667 2061.33 61.8333 1767.59C0 1473.85 185.5 1180.11 216.417 881.22C247.333 587.48 123.667 293.74 61.8333 149.447L0 0H1484L1484 149.447C1484 293.74 1484 587.48 1484 881.22C1484 1180.11 1484 1473.85 1484 1767.59C1484 2061.33 1484 2355.07 1484 2648.81C1484 2942.55 1484 3241.45 1484 3535.19C1484 3828.93 1484 4122.67 1484 4416.41C1484 4710.15 1484 5003.89 1484 5302.78C1484 5596.52 1484 5890.26 1484 6034.55V6184H556.5Z" fill="url(#paint0_linear_410_12637)"/>
<defs>
<linearGradient id="paint0_linear_410_12637" x1="0" y1="3092" x2="1484" y2="3092" gradientUnits="userSpaceOnUse">
<stop offset="0.078125" stop-color="#DF531F" stop-opacity="0.4"/>
<stop offset="0.447917" stop-color="#FFA491" stop-opacity="0.7"/>
<stop offset="1" stop-color="#6F8C54" stop-opacity="0.4"/>
</linearGradient>
</defs>
</svg>
